<svg width="60" height="60" viewBox="0 0 60 60" fill="none" xmlns="http://www.w3.org/2000/svg">
<g filter="url(#filter0_b_48_54)">
<rect width="60" height="60" rx="30" fill="url(#paint0_linear_48_54)"/>
<g clip-path="url(#clip0_48_54)">
<path d="M41.0059 34.2108C40.2913 33.3537 39.4504 32.6222 38.6547 31.8455C37.937 31.1454 37.8917 30.7392 38.4687 29.9311C39.0985 29.0492 39.7757 28.2011 40.4112 27.3231C41.0044 26.5026 41.6107 25.6843 41.9229 24.7019C42.1208 24.0769 41.9457 23.8008 41.3048 23.6914C41.1944 23.6722 41.0802 23.6712 40.9678 23.6712L37.1652 23.6667C36.6969 23.6598 36.438 23.864 36.2723 24.2791C36.0487 24.8402 35.8182 25.4008 35.5518 25.9422C34.9474 27.1699 34.2724 28.3565 33.326 29.3613C33.1174 29.5829 32.8866 29.863 32.5379 29.7476C32.1016 29.5884 31.973 28.8696 31.9802 28.6266L31.9765 24.2375C31.8919 23.6105 31.7529 23.331 31.1304 23.2091L27.1803 23.2099C26.653 23.2099 26.3886 23.4135 26.1071 23.7433C25.9447 23.9339 25.8957 24.0575 26.2294 24.1206C26.8851 24.245 27.2544 24.6693 27.3524 25.3267C27.5096 26.377 27.4986 27.4315 27.4081 28.4861C27.3815 28.794 27.3285 29.1012 27.2064 29.3887C27.0154 29.8406 26.707 29.9326 26.3018 29.6546C25.935 29.4029 25.6773 29.0477 25.4251 28.691C24.4777 27.3524 23.7219 25.9089 23.1056 24.392C22.9275 23.9538 22.6203 23.6881 22.156 23.6809C21.0151 23.6628 19.874 23.6598 18.7332 23.6819C18.0467 23.6948 17.842 24.0281 18.1216 24.6504C19.3642 27.4144 20.7473 30.1015 22.5527 32.5493C23.4797 33.8056 24.5439 34.9146 25.9188 35.7006C27.477 36.5915 29.1543 36.8596 30.921 36.777C31.7482 36.7382 31.9966 36.5231 32.035 35.6986C32.0608 35.1345 32.1247 34.5736 32.403 34.0668C32.6761 33.5693 33.0898 33.4746 33.5665 33.784C33.8051 33.9389 34.006 34.1361 34.1958 34.3441C34.6614 34.8534 35.1103 35.3782 35.5936 35.8704C36.1997 36.4873 36.9177 36.8516 37.8206 36.7773L41.3155 36.778C41.8786 36.7412 42.1706 36.0508 41.8473 35.4223C41.6202 34.982 41.3222 34.5901 41.0059 34.2108Z" fill="white"/>
</g>
</g>
<defs>
<filter id="filter0_b_48_54" x="-24.3" y="-24.3" width="108.6" height="108.6" filterUnits="userSpaceOnUse" color-interpolation-filters="sRGB">
<feFlood flood-opacity="0" result="BackgroundImageFix"/>
<feGaussianBlur in="BackgroundImageFix" stdDeviation="12.15"/>
<feComposite in2="SourceAlpha" operator="in" result="effect1_backgroundBlur_48_54"/>
<feBlend mode="normal" in="SourceGraphic" in2="effect1_backgroundBlur_48_54" result="shape"/>
</filter>
<linearGradient id="paint0_linear_48_54" x1="-20" y1="-18.3732" x2="71.6896" y2="5.21784" gradientUnits="userSpaceOnUse">
<stop/>
<stop offset="1" stop-color="white" stop-opacity="0.14"/>
</linearGradient>
<clipPath id="clip0_48_54">
<rect width="24" height="24" fill="white" transform="translate(18 18)"/>
</clipPath>
</defs>
</svg>
