<svg width="60" height="60" viewBox="0 0 60 60" fill="none" xmlns="http://www.w3.org/2000/svg">
<g filter="url(#filter0_b_48_81)">
<rect width="60" height="60" rx="30" fill="url(#paint0_linear_48_81)"/>
<path d="M19.3972 29.2068L32.9728 23.6135C34.3129 23.0308 38.8575 21.1664 38.8575 21.1664C38.8575 21.1664 40.955 20.3507 40.7802 22.3317C40.722 23.1474 40.2559 26.0023 39.7898 29.0903L38.3331 38.2378C38.3331 38.2378 38.2166 39.5779 37.2261 39.811C36.2356 40.044 34.6042 38.9953 34.3129 38.7622C34.0799 38.5874 29.9431 35.9655 28.4282 34.6837C28.0204 34.3341 27.5542 33.6349 28.4865 32.8192C30.584 30.8965 33.0894 28.5077 34.6042 26.9928C35.3034 26.2936 36.0026 24.6622 33.0894 26.6432L24.8741 32.1783C24.8741 32.1783 23.9419 32.761 22.1939 32.2366C20.446 31.7122 18.4067 31.013 18.4067 31.013C18.4067 31.013 17.0084 30.1391 19.3972 29.2068Z" fill="white"/>
</g>
<defs>
<filter id="filter0_b_48_81" x="-24.3" y="-24.3" width="108.6" height="108.6" filterUnits="userSpaceOnUse" color-interpolation-filters="sRGB">
<feFlood flood-opacity="0" result="BackgroundImageFix"/>
<feGaussianBlur in="BackgroundImageFix" stdDeviation="12.15"/>
<feComposite in2="SourceAlpha" operator="in" result="effect1_backgroundBlur_48_81"/>
<feBlend mode="normal" in="SourceGraphic" in2="effect1_backgroundBlur_48_81" result="shape"/>
</filter>
<linearGradient id="paint0_linear_48_81" x1="-20" y1="-18.3732" x2="71.6896" y2="5.21784" gradientUnits="userSpaceOnUse">
<stop/>
<stop offset="1" stop-color="white" stop-opacity="0.14"/>
</linearGradient>
</defs>
</svg>
